<?xml version="1.0" standalone="no"?><svg xmlns="http://www.w3.org/2000/svg" viewBox="0 0 1440 320"><path fill="#98fb98" fill-opacity="1" d="M0,128L26.7,128C53.3,128,107,128,160,154.7C213.3,181,267,235,320,250.7C373.3,267,427,245,480,224C533.3,203,587,181,640,192C693.3,203,747,245,800,261.3C853.3,277,907,267,960,250.7C1013.3,235,1067,213,1120,218.7C1173.3,224,1227,256,1280,229.3C1333.3,203,1387,117,1413,74.7L1440,32L1440,0L1413.3,0C1386.7,0,1333,0,1280,0C1226.7,0,1173,0,1120,0C1066.7,0,1013,0,960,0C906.7,0,853,0,800,0C746.7,0,693,0,640,0C586.7,0,533,0,480,0C426.7,0,373,0,320,0C266.7,0,213,0,160,0C106.7,0,53,0,27,0L0,0Z"></path></svg>